<svg xmlns="http://www.w3.org/2000/svg" viewBox="0 0 512 512">
  <rect width="512" height="512" rx="104" fill="#111614"/>
  <rect x="72" y="72" width="166" height="166" rx="30" fill="#dcece3"/>
  <rect x="274" y="72" width="166" height="112" rx="30" fill="#285f87"/>
  <rect x="72" y="274" width="112" height="166" rx="30" fill="#b95b28"/>
  <rect x="220" y="220" width="220" height="220" rx="30" fill="#fffef9"/>
  <path d="M277 362V278h67c39 0 63 19 63 51 0 22-12 38-33 46l40 65h-53l-33-57h-5v57h-46zm46-42v28h18c13 0 20-5 20-14 0-10-7-14-20-14h-18z" fill="#111614"/>
</svg>
