<svg xmlns="http://www.w3.org/2000/svg" viewBox="0 0 512 512">
  <rect width="512" height="512" rx="104" fill="#f3f4f1"/>
  <rect x="42" y="42" width="428" height="428" rx="76" fill="#ffffff" stroke="#cbd1cc" stroke-width="8"/>
  <rect x="92" y="96" width="108" height="320" rx="24" fill="#e7edff"/>
  <rect x="220" y="96" width="200" height="320" rx="24" fill="#2457d6"/>
  <path d="M270 176h62c45 0 70 21 70 59 0 28-14 47-41 55l49 76h-56l-42-68h-10v68h-52V176zm52 42v42h10c13 0 20-7 20-21 0-14-7-21-20-21h-10z" fill="#fff"/>
  <circle cx="146" cy="144" r="16" fill="#2457d6"/>
  <rect x="118" y="190" width="56" height="8" rx="4" fill="#9fa8a2"/>
  <rect x="118" y="222" width="56" height="8" rx="4" fill="#9fa8a2"/>
  <rect x="118" y="254" width="56" height="8" rx="4" fill="#9fa8a2"/>
</svg>
